:SAMPLES-PER-SECOND 30
:FULLY-SPECIFIED
:DEGREES
18
root  35.08463281 36.51461263 -14.88525511 9.718841553 1.14648962 3.083787441
lowerback  -8.573419571 0.5515109897 2.153560162
upperback  -3.952120066 0.2470010072 -2.372129917
thorax  0.7362840176 -0.06803837419 -3.645400047
lowerneck  -16.86359978 1.834609985 1.353510022
upperneck  14.84160042 1.360280037 3.640269995
head  7.320610046 1.026681423 1.116909981
lclavicle  0 -4.497500157e-015 -2.743230041e-014
lhumerus  -43.68270111 24.63470078 72.18900299
lradius  -0.05009648949 -6.507048965e-006 28.14749908
lwrist  4.824992743e-007 -3.790274832e-007 -29.33200073
lhand  -3.509876637e-031 -36.9510994 -10.74730015
lfingers  90 7.125020027 -90
lthumb  94.85549164 -25.57997322 101.1303711
rclavicle  0 -4.497500157e-015 -2.743230041e-014
rhumerus  -44.76169968 -23.68969917 -69.20800018
rradius  -5.16745672e-007 2.214343908e-008 48.46039963
rwrist  1.380293725e-006 2.528095422e-007 -154.3800049
rhand  -3.003050566e-031 -2.253900051 -7.899950027
rfingers  -90 -7.125020027 -90
rthumb  -86.5965271 -7.800549507 -66.33798981
rfemur  -13.22939205 14.71473217 13.47781944
rtibia  -1.12524271 0.8124648929 21.64751625
rfoot  -0.9084746242 -18.87618637 -39.92108536
rtoes  4.070858479 19.60653114 -101.9794693
lfemur  -10.9219532 -17.28863144 -18.43311882
ltibia  1.368056178 1.103598833 16.46216965
lfoot  0.537825644 -28.55088615 33.77560425
ltoes  -8.749847412 -18.05533791 -116.4087143
19
root  35.08453369 36.51528546 -14.88255929 9.785715103 1.154229879 3.081559658
lowerback  -8.549409866 0.5465980172 2.123909712
upperback  -3.928560019 0.2461079955 -2.378259897
thorax  0.7472839952 -0.06555311382 -3.635020018
lowerneck  -16.87470055 1.842550039 1.356250048
upperneck  14.82579994 1.367540002 3.657749891
head  7.317180157 1.03415513 1.122959971
lclavicle  0 -4.497500157e-015 -2.743230041e-014
lhumerus  -43.66650009 24.58279991 72.21080017
lradius  -0.05009648949 -6.507048965e-006 28.16800117
lwrist  4.824992743e-007 -3.790274832e-007 -29.23209953
lhand  -3.506825818e-031 -36.92409897 -10.78789997
lfingers  90 7.125020027 -90
lthumb  94.8514328 -25.6207428 101.1051636
rclavicle  0 -4.497500157e-015 -2.743230041e-014
rhumerus  -44.06999969 -23.2038002 -69.70890045
rradius  -5.16745672e-007 2.214343908e-008 49.4137001
rwrist  1.380293725e-006 2.528095422e-007 -154.7819977
rhand  -3.011834106e-031 -2.355969906 -7.768260002
rfingers  -90 -7.125020027 -90
rthumb  -86.56182098 -7.915615559 -66.43015289
rfemur  -13.33635616 14.73463345 13.4621439
rtibia  -1.141473413 0.8224205971 21.70023918
rfoot  -0.938174963 -18.85163689 -39.94565582
rtoes  4.095572472 19.6071682 -102.0531616
lfemur  -11.01689339 -17.25779915 -18.39387321
ltibia  1.337117434 1.115615129 16.47428513
lfoot  0.4934947789 -28.55708504 33.68963242
ltoes  -8.685248375 -18.08569527 -116.2004547
20
root  35.08442856 36.51532751 -14.88018036 9.834821701 1.153669715 3.078090191
lowerback  -8.54227066 0.5516522527 2.099896193
upperback  -3.915689945 0.2508710027 -2.381659985
thorax  0.7569630146 -0.06420242786 -3.624979973
lowerneck  -16.87719917 1.858199954 1.389089942
upperneck  14.82629967 1.384739995 3.636159897
head  7.317989826 1.038349986 1.112499952
lclavicle  0 -4.497500157e-015 -2.743230041e-014
lhumerus  -43.65610123 24.57220078 72.20559692
lradius  -0.05009648949 -6.507048965e-006 28.1432991
lwrist  4.824992743e-007 -3.790274832e-007 -29.19470024
lhand  -3.509023437e-031 -36.96559906 -10.75549984
lfingers  90 7.125020027 -90
lthumb  94.86407471 -25.58751869 101.1466599
rclavicle  0 -4.497500157e-015 -2.743230041e-014
rhumerus  -43.3572998 -22.51250076 -70.25050354
rradius  -5.16745672e-007 2.214343908e-008 50.40869904
rwrist  1.380293725e-006 2.528095422e-007 -155.7660065
rhand  -3.020947919e-031 -2.505899906 -7.631400108
rfingers  -90 -7.125020027 -90
rthumb  -86.53413391 -8.033126831 -66.56845856
rfemur  -13.39652157 14.72624016 13.45785713
rtibia  -1.1460886 0.8100507855 21.71113396
rfoot  -0.9399074912 -18.86728859 -39.93082047
rtoes  4.069046974 19.60776138 -101.9740677
lfemur  -11.06343079 -17.30322266 -18.37693977
ltibia  1.337795138 1.114310861 16.47221184
lfoot  0.4973689318 -28.53408241 33.7210083
ltoes  -8.680600166 -18.08786964 -116.1854782
21
root  35.08431142 36.51491901 -14.87678167 9.836009026 1.155723691 3.083084106
lowerback  -8.571629524 0.5511369705 2.080930471
upperback  -3.919199944 0.2554929852 -2.381059885
thorax  0.7698130012 -0.0654098019 -3.612799883
lowerneck  -16.86459923 1.851209998 1.402009964
upperneck  14.80290031 1.375409961 3.62609005
head  7.308489799 1.033419967 1.105660081
lclavicle  0 -4.497500157e-015 -2.743230041e-014
lhumerus  -43.66690063 24.64089966 72.16130066
lradius  -0.05009648949 -6.507048965e-006 28.11590004
lwrist  4.824992743e-007 -3.790274832e-007 -29.28170013
lhand  -3.510584031e-031 -36.96220016 -10.73719978
lfingers  90 7.125020027 -90
lthumb  94.85853577 -25.56964684 101.141304
rclavicle  0 -4.497500157e-015 -2.743230041e-014
rhumerus  -42.63629913 -21.64310074 -70.87470245
rradius  -5.16745672e-007 2.214343908e-008 51.49129868
rwrist  1.380293725e-006 2.528095422e-007 -156.4259949
rhand  -3.028642325e-031 -2.642750025 -7.515810013
rfingers  -90 -7.125020027 -90
rthumb  -86.51304626 -8.132058144 -66.69525146
rfemur  -13.37955856 14.7463665 13.44975662
rtibia  -1.142323732 0.8151084781 21.68918991
rfoot  -0.928411603 -18.84142113 -39.94023132
rtoes  4.054803848 19.60831451 -101.9316101
lfemur  -11.07336903 -17.27481461 -18.38449478
ltibia  1.333911896 1.097916007 16.48397255
lfoot  0.4751807451 -28.50552368 33.65423965
ltoes  -8.688411713 -18.08836937 -116.21064
22
root  35.08418526 36.51424919 -14.86935353 9.874938011 1.188587308 3.049600363
lowerback  -8.537219048 0.5354670286 2.033539772
upperback  -3.921910048 0.2385739982 -2.391940117
thorax  0.7466070056 -0.07391729951 -3.598690033
lowerneck  -16.80699921 1.861520052 1.401049972
upperneck  14.71829987 1.392879963 3.639039993
head  7.270530224 1.041839957 1.104585648
lclavicle  0 -4.497500157e-015 -2.743230041e-014
lhumerus  -43.68579865 24.67219925 72.13790131
lradius  -0.05009648949 -6.507048965e-006 28.09879875
lwrist  4.824992743e-007 -3.790274832e-007 -29.33270073
lhand  -3.516089748e-031 -36.93280029 -10.67510033
lfingers  90 7.125020027 -90
lthumb  94.83143616 -25.50973892 101.1040878
rclavicle  0 -4.497500157e-015 -2.743230041e-014
rhumerus  -41.86719894 -20.97500038 -71.34770203
rradius  -5.16745672e-007 2.214343908e-008 52.47589874
rwrist  1.380293725e-006 2.528095422e-007 -157.2230072
rhand  -3.033332827e-031 -2.816720009 -7.444779873
rfingers  -90 -7.125020027 -90
rthumb  -86.51689911 -8.188429832 -66.86070251
rfemur  -13.36868 14.68641472 13.46758366
rtibia  -1.121420979 0.7813504934 21.59291077
rfoot  -0.9005191326 -18.88808632 -39.94380188
rtoes  4.053312302 19.60882568 -101.9271622
lfemur  -11.17053413 -17.31436729 -18.30540276
ltibia  1.284817576 1.097944975 16.57873344
lfoot  0.4782168567 -28.53104401 33.64204788
ltoes  -8.683989525 -18.08628464 -116.1963959
23
root  35.08387288 36.51350727 -14.87634614 9.962174416 1.211363792 2.977371931
lowerback  -8.625739098 0.4925020933 1.902469635
upperback  -3.863509893 0.1946039945 -2.374480009
thorax  0.8520240188 -0.09040589631 -3.510710001
lowerneck  -16.74419975 1.880869985 1.391080022
upperneck  14.62209988 1.431139946 3.627439976
head  7.227620125 1.057680011 1.105980992
lclavicle  0 -4.497500157e-015 -2.743230041e-014
lhumerus  -43.70029831 24.73110008 72.14309692
lradius  -0.05009648949 -6.507048965e-006 28.09830093
lwrist  4.824992743e-007 -3.790274832e-007 -29.34000015
lhand  -3.513521016e-031 -36.93370056 -10.70590019
lfingers  90 7.125020027 -90
lthumb  94.83841705 -25.53999329 101.1078186
rclavicle  0 -4.497500157e-015 -2.743230041e-014
rhumerus  -41.00149918 -20.37950134 -71.78900146
rradius  -5.16745672e-007 2.214343908e-008 53.32379913
rwrist  1.380293725e-006 2.528095422e-007 -158.5749969
rhand  -3.034633162e-031 -2.828170061 -7.425320148
rfingers  -90 -7.125020027 -90
rthumb  -86.50821686 -8.20574379 -66.87077332
rfemur  -13.49652004 14.63428688 13.5251255
rtibia  -1.126171708 0.8024094701 21.58260727
rfoot  -0.8829485178 -18.84135246 -39.91553497
rtoes  4.077286243 19.60929871 -101.9986343
lfemur  -11.48697948 -17.35839462 -18.07072258
ltibia  1.102570891 1.133964181 16.87671661
lfoot  0.5083607435 -28.7125988 33.67897797
ltoes  -8.701418877 -18.07812309 -116.2525482
24
root  35.08352144 36.5128825 -14.87292342 9.904535294 1.124185324 3.010973454
lowerback  -8.688579559 0.5210659504 1.900440097
upperback  -3.887779951 0.228174001 -2.351300001
thorax  0.8640069962 -0.07505840063 -3.482500076
lowerneck  -16.73999977 1.883380055 1.379230022
upperneck  14.60949993 1.436980009 3.635090113
head  7.222519875 1.060459971 1.108618259
lclavicle  0 -4.497500157e-015 -2.743230041e-014
lhumerus  -43.70460129 24.8022995 72.12069702
lradius  -0.05009648949 -6.507048965e-006 28.06399727
lwrist  4.824992743e-007 -3.790274832e-007 -29.36849785
lhand  -3.512399453e-031 -36.98429871 -10.71220016
lfingers  90 7.125020027 -90
lthumb  94.86354065 -25.54429626 101.1626129
rclavicle  0 -4.497500157e-015 -2.743230041e-014
rhumerus  -40.14849854 -19.48749924 -72.270401
rradius  -5.16745672e-007 2.214343908e-008 54.48139954
rwrist  1.380293725e-006 2.528095422e-007 -159.4250031
rhand  -3.034591772e-031 -2.780750036 -7.426239967
rfingers  -90 -7.125020027 -90
rthumb  -86.50287628 -8.207292557 -66.82462311
rfemur  -13.41479778 14.657691 13.49354744
rtibia  -1.124595523 0.7600563765 21.55062294
rfoot  -0.8759541512 -18.90192795 -39.9031868
rtoes  4.077712059 19.60973167 -101.9999084
lfemur  -11.33198738 -17.3309536 -18.18608475
ltibia  1.185367942 1.108785748 16.76652527
lfoot  0.52647686 -28.63459206 33.73287201
ltoes  -8.718935013 -18.06990051 -116.3090134
25
root  35.08360855 36.51256111 -14.85929264 9.932329178 1.179291844 2.970731497
lowerback  -8.614600182 0.5000549555 1.831400275
upperback  -3.900360107 0.205625996 -2.371769905
thorax  0.808422029 -0.08707849681 -3.46645999
lowerneck  -16.73600006 1.877730012 1.405959964
upperneck  14.57919979 1.418550014 3.660140038
head  7.212401867 1.061208963 1.111269712
lclavicle  0 -4.497500157e-015 -2.743230041e-014
lhumerus  -43.69689941 24.82929993 72.07569885
lradius  -0.05085481331 -6.507048965e-006 28.03809738
lwrist  4.824992743e-007 -3.790274832e-007 -29.43600082
lhand  -3.513342214e-031 -36.96220016 -10.70400047
lfingers  90 7.125020027 -90
lthumb  94.85142517 -25.53707314 101.138237
rclavicle  0 -4.497500157e-015 -2.743230041e-014
rhumerus  -39.22900009 -18.70120049 -72.78690338
rradius  -5.16745672e-007 2.214343908e-008 55.53279877
rwrist  1.380293725e-006 2.528095422e-007 -159.8829956
rhand  -3.025735197e-031 -2.586210012 -7.559510231
rfingers  -90 -7.125020027 -90
rthumb  -86.52009583 -8.094882965 -66.64269257
rfemur  -13.3374033 14.64376926 13.51957703
rtibia  -1.07722342 0.7882708907 21.39360428
rfoot  -0.7898385525 -18.81863594 -39.87796021
rtoes  4.075155735 19.6101265 -101.9922867
lfemur  -11.32829762 -17.34402466 -18.1483326
ltibia  1.192919254 1.141877532 16.76570129
lfoot  0.5358580947 -28.69149971 33.71306992
ltoes  -8.738665581 -18.06061172 -116.3726349
